HIERARCHY
ROOT Hip
{
	OFFSET 7.75958 15.5947 193.3
	CHANNELS 6 Xposition Yposition Zposition Zrotation Xrotation Yrotation
	JOINT Spine
	{
		OFFSET -0.540533 6.96053 6.65622
		CHANNELS 3 Zrotation Xrotation Yrotation
		JOINT ShoulderCenter
		{
			OFFSET 10.4621 40.3054 4.93486
			CHANNELS 3 Zrotation Xrotation Yrotation
			JOINT Head
			{
				OFFSET 12.989 13.1838 3.3022
				CHANNELS 3 Zrotation Xrotation Yrotation
				End Site
				{
					OFFSET 0.0 0.0 0.0
				}
			}
			JOINT ShoulderLeft
			{
				OFFSET 11.2835 -21.5914 0.436264
				CHANNELS 3 Zrotation Xrotation Yrotation
				JOINT ElbowLeft
				{
					OFFSET 6.58009 -17.3661 4.79951
					CHANNELS 3 Zrotation Xrotation Yrotation
					JOINT WristLeft
					{
						OFFSET 6.07736 -17.6623 -8.15933
						CHANNELS 3 Zrotation Xrotation Yrotation
						JOINT HandLeft
						{
							OFFSET 2.18937 -6.1411 -1.72466
							CHANNELS 3 Zrotation Xrotation Yrotation
							End Site
							{
								OFFSET 0.0 0.0 0.0
							}
						}
					}
				}
			}
			JOINT ShoulderRight
			{
				OFFSET -17.9379 -10.1169 -10.1198
				CHANNELS 3 Zrotation Xrotation Yrotation
				JOINT ElbowRight
				{
					OFFSET -19.6665 -17.5394 -9.59221
					CHANNELS 3 Zrotation Xrotation Yrotation
					JOINT WristRight
					{
						OFFSET -8.53332 -18.6838 -11.4866
						CHANNELS 3 Zrotation Xrotation Yrotation
						JOINT HandRight
						{
							OFFSET -4.21762 -4.28933 -2.59003
							CHANNELS 3 Zrotation Xrotation Yrotation
							End Site
							{
								OFFSET 0.0 0.0 0.0
							}
						}
					}
				}
			}
		}
	}
	JOINT HipLeft
	{
		OFFSET 5.16186 -9.029 1.08562
		CHANNELS 3 Zrotation Xrotation Yrotation
		JOINT KneeLeft
		{
			OFFSET 2.3794 -45.2482 -0.437302
			CHANNELS 3 Zrotation Xrotation Yrotation
			JOINT AnkleLeft
			{
				OFFSET 2.02199 -35.522 1.44424
				CHANNELS 3 Zrotation Xrotation Yrotation
				JOINT FootLeft
				{
					OFFSET 6.70367 -4.92928 -1.76866
					CHANNELS 3 Zrotation Xrotation Yrotation
					End Site
					{
						OFFSET 0.0 0.0 0.0
					}
				}
			}
		}
	}
	JOINT HipRight
	{
		OFFSET -8.15347 -5.58378 -5.1102
		CHANNELS 3 Zrotation Xrotation Yrotation
		JOINT KneeRight
		{
			OFFSET -7.5843 -48.739 1.06766
			CHANNELS 3 Zrotation Xrotation Yrotation
			JOINT AnkleRight
			{
				OFFSET -2.9033 -31.6223 -1.34735
				CHANNELS 3 Zrotation Xrotation Yrotation
				JOINT FootRight
				{
					OFFSET 3.74107 -3.54575 -8.62486
					CHANNELS 3 Zrotation Xrotation Yrotation
					End Site
					{
						OFFSET 0.0 0.0 0.0
					}
				}
			}
		}
	}
}

MOTION
Frames: 22
Frame Time: 0.033333
7.76232 15.5947 193.303 13.3697 -8.67651 152.974 21.8734 -38.9767 142.803 15.9629 -1.39379 159.567 45.2643 4.49075 161.253 153.35 -7.69942 162.722 159.24 14.1763 176.977 158.457 -20.6226 -169.803 159.233 -13.9528 -172.506 -116.263 -4.72077 152.876 -138.697 33.6512 121.754 -145.314 15.096 106.011 -139.024 29.8625 118.651 150.876 -8.67651 152.974 177.509 -1.78048 154.609 176.067 0.680415 154.502 139.33 -40.1911 157.878 -120.516 -8.67651 152.974 -172.422 4.7466 156.144 -174.208 -0.047586 155.507 -165.043 -68.5732 140.534 
7.76232 15.5947 193.303 13.3697 -8.67651 152.974 21.8734 -38.9767 142.803 15.9629 -1.39379 159.567 45.2643 4.49075 161.253 153.35 -7.69942 162.722 159.24 14.1763 176.977 158.457 -20.6226 -169.803 159.233 -13.9528 -172.506 -116.263 -4.72077 152.876 -138.697 33.6512 121.754 -145.314 15.096 106.011 -139.024 29.8625 118.651 150.876 -8.67651 152.974 177.509 -1.78048 154.609 176.067 0.680415 154.502 139.33 -40.1911 157.878 -120.516 -8.67651 152.974 -172.422 4.7466 156.144 -174.208 -0.047586 155.507 -165.043 -68.5732 140.534 
7.76232 15.5947 193.303 13.3697 -8.67651 152.974 21.8734 -38.9767 142.803 15.9629 -1.39379 159.567 45.2643 4.49075 161.253 153.35 -7.69942 162.722 159.24 14.1763 176.977 158.457 -20.6226 -169.803 159.233 -13.9528 -172.506 -116.263 -4.72077 152.876 -138.697 33.6512 121.754 -145.314 15.096 106.011 -139.024 29.8625 118.651 150.876 -8.67651 152.974 177.509 -1.78048 154.609 176.067 0.680415 154.502 139.33 -40.1911 157.878 -120.516 -8.67651 152.974 -172.422 4.7466 156.144 -174.208 -0.047586 155.507 -165.043 -68.5732 140.534 
7.76232 15.5947 193.303 13.3697 -8.67651 152.974 21.8734 -38.9767 142.803 15.9629 -1.39379 159.567 45.2643 4.49075 161.253 153.35 -7.69942 162.722 159.24 14.1763 176.977 158.457 -20.6226 -169.803 159.233 -13.9528 -172.506 -116.263 -4.72077 152.876 -138.697 33.6512 121.754 -145.314 15.096 106.011 -139.024 29.8625 118.651 150.876 -8.67651 152.974 177.509 -1.78048 154.609 176.067 0.680415 154.502 139.33 -40.1911 157.878 -120.516 -8.67651 152.974 -172.422 4.7466 156.144 -174.208 -0.047586 155.507 -165.043 -68.5732 140.534 
7.76232 15.5947 193.303 13.3697 -8.67651 152.974 21.8734 -38.9767 142.803 15.9629 -1.39379 159.567 45.2643 4.49075 161.253 153.35 -7.69942 162.722 159.24 14.1763 176.977 158.457 -20.6226 -169.803 159.233 -13.9528 -172.506 -116.263 -4.72077 152.876 -138.697 33.6512 121.754 -145.314 15.096 106.011 -139.024 29.8625 118.651 150.876 -8.67651 152.974 177.509 -1.78048 154.609 176.067 0.680415 154.502 139.33 -40.1911 157.878 -120.516 -8.67651 152.974 -172.422 4.7466 156.144 -174.208 -0.047586 155.507 -165.043 -68.5732 140.534 
7.76232 15.5947 193.303 13.3697 -8.67651 152.974 21.8734 -38.9767 142.803 15.9629 -1.39379 159.567 45.2643 4.49075 161.253 153.35 -7.69942 162.722 159.24 14.1763 176.977 158.457 -20.6226 -169.803 159.233 -13.9528 -172.506 -116.263 -4.72077 152.876 -138.697 33.6512 121.754 -145.314 15.096 106.011 -139.024 29.8625 118.651 150.876 -8.67651 152.974 177.509 -1.78048 154.609 176.067 0.680415 154.502 139.33 -40.1911 157.878 -120.516 -8.67651 152.974 -172.422 4.7466 156.144 -174.208 -0.047586 155.507 -165.043 -68.5732 140.534 
7.76232 15.5947 193.303 13.3697 -8.67651 152.974 21.8734 -38.9767 142.803 15.9629 -1.39379 159.567 45.2643 4.49075 161.253 153.35 -7.69942 162.722 159.24 14.1763 176.977 158.457 -20.6226 -169.803 159.233 -13.9528 -172.506 -116.263 -4.72077 152.876 -138.697 33.6512 121.754 -145.314 15.096 106.011 -139.024 29.8625 118.651 150.876 -8.67651 152.974 177.509 -1.78048 154.609 176.067 0.680415 154.502 139.33 -40.1911 157.878 -120.516 -8.67651 152.974 -172.422 4.7466 156.144 -174.208 -0.047586 155.507 -165.043 -68.5732 140.534 
7.76232 15.5947 193.303 13.3697 -8.67651 152.974 21.8734 -38.9767 142.803 15.9629 -1.39379 159.567 45.2643 4.49075 161.253 153.35 -7.69942 162.722 159.24 14.1763 176.977 158.457 -20.6226 -169.803 159.233 -13.9528 -172.506 -116.263 -4.72077 152.876 -138.697 33.6512 121.754 -145.314 15.096 106.011 -139.024 29.8625 118.651 150.876 -8.67651 152.974 177.509 -1.78048 154.609 176.067 0.680415 154.502 139.33 -40.1911 157.878 -120.516 -8.67651 152.974 -172.422 4.7466 156.144 -174.208 -0.047586 155.507 -165.043 -68.5732 140.534 
7.76232 15.5947 193.303 13.3697 -8.67651 152.974 21.8734 -38.9767 142.803 15.9629 -1.39379 159.567 45.2643 4.49075 161.253 153.35 -7.69942 162.722 159.24 14.1763 176.977 158.457 -20.6226 -169.803 159.233 -13.9528 -172.506 -116.263 -4.72077 152.876 -138.697 33.6512 121.754 -145.314 15.096 106.011 -139.024 29.8625 118.651 150.876 -8.67651 152.974 177.509 -1.78048 154.609 176.067 0.680415 154.502 139.33 -40.1911 157.878 -120.516 -8.67651 152.974 -172.422 4.7466 156.144 -174.208 -0.047586 155.507 -165.043 -68.5732 140.534 
7.76232 15.5947 193.303 13.3697 -8.67651 152.974 21.8734 -38.9767 142.803 15.9629 -1.39379 159.567 45.2643 4.49075 161.253 153.35 -7.69942 162.722 159.24 14.1763 176.977 158.457 -20.6226 -169.803 159.233 -13.9528 -172.506 -116.263 -4.72077 152.876 -138.697 33.6512 121.754 -145.314 15.096 106.011 -139.024 29.8625 118.651 150.876 -8.67651 152.974 177.509 -1.78048 154.609 176.067 0.680415 154.502 139.33 -40.1911 157.878 -120.516 -8.67651 152.974 -172.422 4.7466 156.144 -174.208 -0.047586 155.507 -165.043 -68.5732 140.534 
7.76232 15.5947 193.303 13.3697 -8.67651 152.974 21.8734 -38.9767 142.803 15.9629 -1.39379 159.567 45.2643 4.49075 161.253 153.35 -7.69942 162.722 159.24 14.1763 176.977 158.457 -20.6226 -169.803 159.233 -13.9528 -172.506 -116.263 -4.72077 152.876 -138.697 33.6512 121.754 -145.314 15.096 106.011 -139.024 29.8625 118.651 150.876 -8.67651 152.974 177.509 -1.78048 154.609 176.067 0.680415 154.502 139.33 -40.1911 157.878 -120.516 -8.67651 152.974 -172.422 4.7466 156.144 -174.208 -0.047586 155.507 -165.043 -68.5732 140.534 
7.76232 15.5947 193.303 13.3697 -8.67651 152.974 21.8734 -38.9767 142.803 15.9629 -1.39379 159.567 45.2643 4.49075 161.253 153.35 -7.69942 162.722 159.24 14.1763 176.977 158.457 -20.6226 -169.803 159.233 -13.9528 -172.506 -116.263 -4.72077 152.876 -138.697 33.6512 121.754 -145.314 15.096 106.011 -139.024 29.8625 118.651 150.876 -8.67651 152.974 177.509 -1.78048 154.609 176.067 0.680415 154.502 139.33 -40.1911 157.878 -120.516 -8.67651 152.974 -172.422 4.7466 156.144 -174.208 -0.047586 155.507 -165.043 -68.5732 140.534 
7.76232 15.5947 193.303 13.3697 -8.67651 152.974 21.8734 -38.9767 142.803 15.9629 -1.39379 159.567 45.2643 4.49075 161.253 153.35 -7.69942 162.722 159.24 14.1763 176.977 158.457 -20.6226 -169.803 159.233 -13.9528 -172.506 -116.263 -4.72077 152.876 -138.697 33.6512 121.754 -145.314 15.096 106.011 -139.024 29.8625 118.651 150.876 -8.67651 152.974 177.509 -1.78048 154.609 176.067 0.680415 154.502 139.33 -40.1911 157.878 -120.516 -8.67651 152.974 -172.422 4.7466 156.144 -174.208 -0.047586 155.507 -165.043 -68.5732 140.534 
7.76232 15.5947 193.303 13.3697 -8.67651 152.974 21.8734 -38.9767 142.803 15.9629 -1.39379 159.567 45.2643 4.49075 161.253 153.35 -7.69942 162.722 159.24 14.1763 176.977 158.457 -20.6226 -169.803 159.233 -13.9528 -172.506 -116.263 -4.72077 152.876 -138.697 33.6512 121.754 -145.314 15.096 106.011 -139.024 29.8625 118.651 150.876 -8.67651 152.974 177.509 -1.78048 154.609 176.067 0.680415 154.502 139.33 -40.1911 157.878 -120.516 -8.67651 152.974 -172.422 4.7466 156.144 -174.208 -0.047586 155.507 -165.043 -68.5732 140.534 
7.76232 15.5947 193.303 13.3697 -8.67651 152.974 21.8734 -38.9767 142.803 15.9629 -1.39379 159.567 45.2643 4.49075 161.253 153.35 -7.69942 162.722 159.24 14.1763 176.977 158.457 -20.6226 -169.803 159.233 -13.9528 -172.506 -116.263 -4.72077 152.876 -138.697 33.6512 121.754 -145.314 15.096 106.011 -139.024 29.8625 118.651 150.876 -8.67651 152.974 177.509 -1.78048 154.609 176.067 0.680415 154.502 139.33 -40.1911 157.878 -120.516 -8.67651 152.974 -172.422 4.7466 156.144 -174.208 -0.047586 155.507 -165.043 -68.5732 140.534 
7.76232 15.5947 193.303 13.3697 -8.67651 152.974 21.8734 -38.9767 142.803 15.9629 -1.39379 159.567 45.2643 4.49075 161.253 153.35 -7.69942 162.722 159.24 14.1763 176.977 158.457 -20.6226 -169.803 159.233 -13.9528 -172.506 -116.263 -4.72077 152.876 -138.697 33.6512 121.754 -145.314 15.096 106.011 -139.024 29.8625 118.651 150.876 -8.67651 152.974 177.509 -1.78048 154.609 176.067 0.680415 154.502 139.33 -40.1911 157.878 -120.516 -8.67651 152.974 -172.422 4.7466 156.144 -174.208 -0.047586 155.507 -165.043 -68.5732 140.534 
7.76232 15.5947 193.303 13.3697 -8.67651 152.974 21.8734 -38.9767 142.803 15.9629 -1.39379 159.567 45.2643 4.49075 161.253 153.35 -7.69942 162.722 159.24 14.1763 176.977 158.457 -20.6226 -169.803 159.233 -13.9528 -172.506 -116.263 -4.72077 152.876 -138.697 33.6512 121.754 -145.314 15.096 106.011 -139.024 29.8625 118.651 150.876 -8.67651 152.974 177.509 -1.78048 154.609 176.067 0.680415 154.502 139.33 -40.1911 157.878 -120.516 -8.67651 152.974 -172.422 4.7466 156.144 -174.208 -0.047586 155.507 -165.043 -68.5732 140.534 
7.76232 15.5947 193.303 13.3697 -8.67651 152.974 21.8734 -38.9767 142.803 15.9629 -1.39379 159.567 45.2643 4.49075 161.253 153.35 -7.69942 162.722 159.24 14.1763 176.977 158.457 -20.6226 -169.803 159.233 -13.9528 -172.506 -116.263 -4.72077 152.876 -138.697 33.6512 121.754 -145.314 15.096 106.011 -139.024 29.8625 118.651 150.876 -8.67651 152.974 177.509 -1.78048 154.609 176.067 0.680415 154.502 139.33 -40.1911 157.878 -120.516 -8.67651 152.974 -172.422 4.7466 156.144 -174.208 -0.047586 155.507 -165.043 -68.5732 140.534 
7.76232 15.5947 193.303 13.3697 -8.67651 152.974 21.8734 -38.9767 142.803 15.9629 -1.39379 159.567 45.2643 4.49075 161.253 153.35 -7.69942 162.722 159.24 14.1763 176.977 158.457 -20.6226 -169.803 159.233 -13.9528 -172.506 -116.263 -4.72077 152.876 -138.697 33.6512 121.754 -145.314 15.096 106.011 -139.024 29.8625 118.651 150.876 -8.67651 152.974 177.509 -1.78048 154.609 176.067 0.680415 154.502 139.33 -40.1911 157.878 -120.516 -8.67651 152.974 -172.422 4.7466 156.144 -174.208 -0.047586 155.507 -165.043 -68.5732 140.534 
7.76232 15.5947 193.303 13.3697 -8.67651 152.974 21.8734 -38.9767 142.803 15.9629 -1.39379 159.567 45.2643 4.49075 161.253 153.35 -7.69942 162.722 159.24 14.1763 176.977 158.457 -20.6226 -169.803 159.233 -13.9528 -172.506 -116.263 -4.72077 152.876 -138.697 33.6512 121.754 -145.314 15.096 106.011 -139.024 29.8625 118.651 150.876 -8.67651 152.974 177.509 -1.78048 154.609 176.067 0.680415 154.502 139.33 -40.1911 157.878 -120.516 -8.67651 152.974 -172.422 4.7466 156.144 -174.208 -0.047586 155.507 -165.043 -68.5732 140.534 
7.76517 15.5947 193.306 13.3808 -8.68467 152.951 21.8866 -38.9839 142.779 15.9715 -1.39446 159.524 45.2243 4.49587 161.212 153.331 -7.68322 162.673 159.244 14.0132 176.817 158.459 -20.5389 -170.054 159.299 -14.0984 -172.654 -116.271 -4.71243 152.853 -138.709 33.6743 121.719 -145.328 15.1268 105.987 -139.033 29.9084 118.636 150.893 -8.68467 152.951 177.503 -1.77623 154.59 176.071 0.667895 154.484 139.346 -40.213 157.859 -120.52 -8.68467 152.951 -172.42 4.75237 156.127 -174.199 -0.0523514 155.489 -165.013 -68.5729 140.491 
7.76517 15.5947 193.306 13.3808 -8.68467 152.951 21.8866 -38.9839 142.779 15.9715 -1.39446 159.524 45.2243 4.49587 161.212 153.331 -7.68322 162.673 159.244 14.0132 176.817 158.459 -20.5389 -170.054 159.299 -14.0984 -172.654 -116.271 -4.71243 152.853 -138.709 33.6743 121.719 -145.328 15.1268 105.987 -139.033 29.9084 118.636 150.893 -8.68467 152.951 177.503 -1.77623 154.59 176.071 0.667895 154.484 139.346 -40.213 157.859 -120.52 -8.68467 152.951 -172.42 4.75237 156.127 -174.199 -0.0523514 155.489 -165.013 -68.5729 140.491 
